<svg xmlns="http://www.w3.org/2000/svg" width="177.195" height="25.807" viewBox="0 0 177.195 25.807"><path fill="#B4B4B4" d="M13.35 3.315V0h4.015v3.315H13.35zm4.015 2.25v14.56H13.35V5.565h4.015zm5.788 0v2.012h.118c1.182-1.894 3.427-2.723 5.67-2.368 1.182.117 2.245.71 2.954 1.538 1.536 1.894 1.063 4.972 1.063 7.22v6.038H28.94v-8.168c0-.947-.117-2.368-.826-3.078-.472-.473-1.18-.473-1.772-.473-.827 0-1.654.237-2.244.947-.472.592-.71 1.658-.71 3.196v7.695h-4.016V5.565h3.78zm15.24 10.89c.235.474.708.83 1.298 1.065.474.237 1.064.237 1.655.237.71 0 1.418-.237 1.89-.71.827-.83.236-2.13-.71-2.486-2.36-.827-6.024-.827-7.56-3.195-.708-1.065-.59-2.605 0-3.67.592-1.066 1.773-1.894 3.072-2.25 1.18-.354 2.6-.354 3.898-.236 1.772.236 3.662.71 4.725 2.367.354.592.59 1.302.71 2.25h-3.78c0-.71-.355-1.303-.828-1.54-.827-.474-2.126-.592-2.953-.355-.946.237-1.537 1.42-.71 2.13 1.18 1.067 3.308 1.067 4.843 1.422 1.3.355 2.717.947 3.426 2.13.944 1.42.59 3.552-.474 4.855-1.063 1.3-2.835 2.01-4.607 2.13-1.773.118-4.018-.12-5.67-1.066-.592-.355-1.182-.947-1.537-1.54-.354-.59-.71-1.656-.827-2.603h3.78c.002.355.12.71.356 1.065zm10.75-13.14V0h4.016v3.315H49.14zm4.016 2.25v14.56H49.14V5.565h4.017zM65.56 18.23c-.118 0-.827 1.067-1.063 1.185-.474.355-.946.592-1.537.71-1.3.355-2.717.355-4.016-.12-3.662-1.3-4.843-5.68-4.134-9.233.354-2.012 1.536-3.907 3.307-4.972 2.244-1.302 5.788-.947 7.206 1.42V0h4.017v20.125h-3.78V18.23zm-.236-7.22c-.118-.71-.472-1.303-.827-1.777-.946-1.184-2.836-1.42-4.136-.71-1.654.947-2.008 3.315-1.772 5.09.118.947.354 1.894.945 2.604.59.71 1.417 1.184 2.363 1.184.945 0 1.772-.354 2.48-.946 1.3-1.3 1.418-3.787.946-5.445zm10.277 5.563c.236.237.354.355.59.474 1.537.71 4.49.473 5.08-1.42h3.545c-1.063 3.432-4.253 5.445-7.797 4.853-2.243-.355-4.37-1.776-5.55-3.788-2.954-5.327 1.535-12.55 7.678-11.365 4.135.71 6.143 4.617 5.906 8.524H74.422c0 .948.472 2.013 1.18 2.723zm2.48-8.523c-2.125 0-3.425 1.42-3.543 3.196h6.852c-.12-1.42-1.3-3.196-3.308-3.196zm12.168-2.486v2.723s.592-1.065.71-1.184c.354-.355.71-.71 1.063-1.066 1.063-.71 2.48-1.065 3.662-.71v3.67c-1.418-.237-2.953-.237-4.135.83-1.063.946-1.18 2.367-1.18 3.67v6.63h-4.017V5.563h3.898zm8.625 0v2.723c.354-1.065 1.063-1.776 2.008-2.368 2.6-1.54 6.26-.948 8.15 1.538 1.773 2.25 1.89 5.682 1.182 8.287-.236.947-.71 1.776-1.18 2.486-2.127 2.724-6.853 3.08-9.097.475-.354-.355-.59-.83-.827-1.42v8.05h-1.77V5.564h1.535zm9.686 4.972c-.235-.83-.59-1.54-1.062-2.13-.945-1.303-2.717-2.013-4.253-1.777-2.008.236-3.662 1.893-4.017 3.787-.118.71-.236 1.54-.236 2.368 0 1.894.473 3.907 2.008 5.21 1.418 1.064 3.662 1.42 5.198.473 2.482-1.54 3.19-5.09 2.363-7.932zm4.254-2.723c.59-1.184 1.536-1.894 2.717-2.368 1.064-.355 2.127-.355 3.19-.355.827 0 1.654.118 2.363.473 1.654.71 2.244 2.368 2.244 4.144V17.4c0 .712.354 1.067 1.063 1.067.236 0 .354 0 .59-.118v1.538c-.708.118-1.417.237-2.007 0-.59-.237-1.3-1.658-1.3-2.13 0 0-3.544 5.09-8.742 1.538-1.298-1.066-1.653-2.96-1.18-4.498.472-1.657 2.244-2.486 3.78-2.723 1.3-.237 2.6-.355 3.898-.473 1.18-.118 2.126-.592 2.126-2.012 0-1.657-1.18-2.723-2.717-2.96-1.18-.118-2.6 0-3.544.71-.354.237-.71.71-.945 1.065-.118.118-.473 1.54-.354 1.54h-1.772c.12-.83.238-1.54.592-2.132zm8.86 4.38c-.118.237-.354.355-.59.473-.356.12-.592.12-.828.237-1.3.237-2.717.355-3.898.592-1.18.237-2.363.947-2.717 2.13-.235.948.12 2.132.946 2.724.827.59 1.772.828 2.717.71 1.654-.237 3.07-1.066 3.78-2.605.71-1.42.59-2.96.59-4.262zm16.183 9.826c-.354.946-.59 1.656-1.417 2.367-1.18 1.065-2.953 1.42-4.49 1.42-2.716 0-5.787-1.3-6.024-4.38h1.772c.236 1.658 1.654 2.605 3.308 2.842.945.118 1.89.118 2.835-.12 2.246-.71 2.718-3.077 2.718-5.207V16.93c-.827 1.776-2.6 2.84-4.607 2.96-1.89.118-3.897-.71-5.08-2.25-1.653-2.012-1.89-5.445-1.18-7.93.59-1.895 1.89-3.434 3.662-4.263 2.126-.947 4.725-.355 6.26 1.42.356.355.592.71.71 1.184V5.565h1.772v11.128c0 1.776 0 4.38-.237 5.327zm-4.016-4.144c.12-.118.356-.118.474-.237.945-.71 1.654-1.777 2.008-2.96.354-1.303.354-2.842 0-4.144-.472-1.776-1.654-3.433-3.544-3.788-1.18-.237-2.6 0-3.544.71-.945.71-1.654 1.894-1.89 3.078-.59 2.604-.118 5.92 2.48 7.34 1.182.71 2.836.71 4.017 0zm8.39-2.605c.353 1.54 1.416 2.842 2.952 3.434 1.418.592 3.426.355 4.607-.71.708-.71 1.18-1.54 1.535-2.723h1.772c-.354 1.658-1.063 2.96-2.008 3.79-2.01 1.775-5.67 1.775-7.797.354-1.063-.71-1.772-1.657-2.245-2.84-.473-1.185-.71-2.37-.71-3.553 0-2.13.474-4.38 1.89-6.036 1.537-1.776 4.135-2.486 6.262-1.776 3.544.947 4.843 4.617 4.725 7.932H142.11c-.118.83-.118 1.42.12 2.13zm8.74-5.444c-.71-1.894-2.245-3.315-4.49-3.196-2.716.118-4.252 2.723-4.488 5.21h9.332c0-.712-.118-1.304-.354-2.014zm12.167-1.42c-.236-.593-.71-.948-1.3-1.303-.59-.355-1.3-.474-2.007-.474-.59 0-1.18 0-1.772.236-1.18.474-2.244 1.776-1.536 3.078.59 1.302 2.6 1.657 3.78 1.894 1.18.237 2.48.473 3.544 1.065 2.008 1.184 2.6 3.788 1.063 5.682-.828 1.065-2.128 1.54-3.545 1.776-1.89.238-4.016.12-5.552-1.064-1.063-.83-1.654-2.13-1.772-3.907h1.773c.118 1.183.472 2.13 1.3 2.722 1.535 1.184 4.252 1.302 5.906.118.944-.71 1.417-2.13.59-3.196-.473-.592-1.18-.947-1.89-1.184-1.89-.592-3.898-.592-5.552-1.657-2.008-1.42-2.126-4.262-.236-5.8 1.536-1.303 3.78-1.54 5.67-.948.945.237 1.89.71 2.48 1.42.355.355.592.947.828 1.42 0 .12.354 1.658.354 1.658h-1.772c0-.59-.118-1.064-.355-1.538zM0 10.18l10.04 9.945V10.18H0zm166.21-6.51v-.592h4.37v.592h-1.772v4.854h-.71V3.67h-1.89zm6.496-.592l1.772 4.617 1.772-4.617h.945v5.445h-.71V3.907l-1.653 4.617h-.59l-1.773-4.617v4.5h-.71v-5.33h.946z"/></svg>