<svg xmlns="http://www.w3.org/2000/svg" width="100.303" height="34.416" viewBox="0 0 100.303 34.416"><path fill="#B4B4B4" d="M15.51 16.723h4.314v6.067c-1.346.433-3.045.67-4.812.67-7.16 0-11.367-6.14-11.367-12.135 0-5.88 3.806-10.006 9.116-10.006 3.36 0 5.316 1.14 7.065 2.727v1.98l3.28-3.285C21.03 1.336 18.027 0 13.733 0 4.308 0 0 6.753 0 12.303c0 7.9 5.745 12.658 12.965 12.658 3.5 0 6.61-.534 10.2-1.535v-6.27c0-.32.14-.54.35-.733l1.133-1.135h-7.694l-1.444 1.436zM34.833 8.48v-.002c-5.425 0-8.786 3.97-8.786 8.184 0 3.637 2.708 7.956 8.194 7.956 5.28 0 8.517-3.978 8.517-8.266 0-3.994-3.164-7.873-7.924-7.873zm.19 15.103c-1.815 0-3.084-1.1-4.033-2.54-.836-1.327-1.653-3.793-1.653-6.204 0-2.4.785-3.574 2.02-4.436 1.01-.646 1.955-.77 2.575-.77 3.826 0 5.53 4.99 5.53 8.55 0 5.295-3.966 5.4-4.44 5.4zm38.425-1.252c-.836-.65-.998-1.064-.998-1.55 0-.7.417-1.16.57-1.334.268-.284.734-.61.91-.764.954-.81 2.302-2.01 2.302-4.402 0-1.642-.682-3.054-2.235-4.376h1.896l1.425-1.427h-7.023c-4.738 0-7.3 3.004-7.3 6.36 0 2.552 1.826 5.433 5.594 5.433h.952s-.26.632-.26 1.242c0 .9.322 1.406 1.008 2.184-6.484.396-9.09 3.015-9.09 5.83 0 2.465 2.357 4.89 7.31 4.89 5.865 0 8.903-3.26 8.903-6.46 0-2.256-1.123-3.493-3.965-5.625zm-3.196-3.057c-.56 0-1.23-.157-1.8-.546-1.26-.82-2.513-3-2.513-5.595 0-2.342 1.392-3.588 3.048-3.588.86 0 1.578.305 2.336.936.84.76 2.184 2.8 2.184 5.323 0 2.724-2.112 3.47-3.256 3.47zM70.2 32.926c-3.385 0-5.973-1.58-5.973-4.156 0-2.135 1.773-3.973 6.638-4.04.362 0 .62.03.62.03s.854.61 1.45 1.065c1.387 1.098 2.253 1.938 2.253 3.433 0 2.056-1.904 3.668-4.988 3.668zm12.974-10.923V2.327c0-.387.18-.586.31-.712L84.66.44H79.11l-1.443 1.446h2.156v20.382c0 .29-.09.487-.286.69l-1.192 1.19h6.504l.99-.993-1.866-.233c-.502-.063-.8-.497-.8-.92zm13.026.88c-2.914 0-5.724-2.106-6.707-5.977l10.294-4.167c-.595-2.124-2.27-4.262-6.124-4.262h-.002c-3.63 0-7.49 2.772-7.49 7.75 0 4.11 2.77 8.39 7.94 8.39 1.29 0 2.353-.167 3.348-.624 1.067-.492 2.094-1.292 2.844-2.296-1.415.714-2.57 1.184-4.102 1.184zM89.09 14.2c0-3.617 2.61-4.584 3.9-4.584 1.948 0 3.357 1.606 3.357 2.862 0 .406-.255.62-.758.82l-6.33 2.563s-.17-.797-.17-1.66zM53.242 8.48v-.002c-5.425 0-8.786 3.97-8.786 8.184 0 3.637 2.708 7.956 8.194 7.956 5.278 0 8.516-3.978 8.516-8.266 0-3.994-3.165-7.873-7.924-7.873zm.188 15.103c-1.814 0-3.083-1.1-4.032-2.54-.836-1.327-1.653-3.793-1.653-6.204 0-2.4.785-3.574 2.02-4.436 1.01-.646 1.955-.77 2.575-.77 3.826 0 5.53 4.99 5.53 8.55 0 5.295-3.966 5.4-4.44 5.4z"/></svg>