<svg xmlns="http://www.w3.org/2000/svg" width="89.6" height="34.406" viewBox="0 0 89.6 34.406"><path fill="#B4B4B4" d="M13.737 16.5l5.182 2.338L.23 28.656l7.657-6.816V2.41L0 0v28.897l7.84 5.486L27.552 22.66v-8.452l-17.322-5.3 3.507 7.59zm31.624-4.024c-2.23 0-3.924.974-5.082 2.924h-.057V6.467l-2.354-.7v21.73h2.355v-2.12h.058c.995 1.643 2.465 2.465 4.408 2.465 2.076 0 3.713-.738 4.91-2.215 1.196-1.476 1.794-3.442 1.794-5.898 0-2.208-.534-3.97-1.6-5.283-1.067-1.315-2.543-1.97-4.43-1.97zm2.406 11.754c-.81 1.09-1.927 1.634-3.352 1.634-1.216 0-2.218-.423-3.008-1.27-.79-.845-1.184-1.874-1.184-3.088v-2.05c0-1.433.417-2.625 1.25-3.576.833-.95 1.933-1.427 3.3-1.427 1.294 0 2.318.464 3.074 1.39.756.928 1.135 2.208 1.135 3.842 0 1.94-.406 3.456-1.214 4.545zm7.91-17.815c-.42 0-.78.146-1.076.438-.297.292-.445.656-.445 1.096 0 .44.148.802.445 1.09.297.286.655.43 1.077.43.43 0 .797-.15 1.098-.445.302-.297.453-.654.453-1.075 0-.44-.15-.804-.453-1.096-.3-.294-.668-.44-1.098-.44zM54.47 27.497h2.355V12.82H54.47v14.677zm13.505-15.022c-2.106 0-3.714.928-4.824 2.78h-.056V12.82H60.74v14.678h2.354v-8.37c0-1.35.386-2.464 1.156-3.35.77-.883 1.744-1.324 2.922-1.324 2.278 0 3.417 1.558 3.417 4.673v8.37h2.354v-8.972c0-1.96-.426-3.458-1.278-4.494-.853-1.036-2.083-1.555-3.69-1.555zm19.27.344v1.916h-.057c-.957-1.587-2.392-2.304-4.374-2.304-2.086 0-3.764.78-4.966 2.25-1.2 1.472-1.85 3.43-1.85 5.924 0 2.198.606 3.974 1.72 5.278 1.116 1.305 2.588 1.956 4.416 1.956 2.25 0 3.934-.936 5.054-2.81h.057v1.606c0 3.842-1.934 5.738-5.433 5.738-1.322 0-2.648-.397-4.09-1.106l-.642 2.106c1.36.688 2.948 1.032 4.766 1.032 5.168 0 7.753-2.694 7.753-8.084V12.82h-2.355zm0 8.04c-.028 2.605-1.56 4.894-4.465 4.894-2.9 0-4.32-2.488-4.32-5.28.023-2.925 1.243-6.022 4.65-6.022 2.245 0 4.135 1.932 4.135 4.243v2.165z"/></svg>