<svg xmlns="http://www.w3.org/2000/svg" width="173.017" height="21.509" viewBox="0 0 173.017 21.509"><path fill="#B4B4B4" d="M49.598.317h-4.18c-.29 0-.578.288-.578.432v10.667c0 1.73-.72 2.595-2.307 2.595-1.586 0-2.307-.865-2.307-2.595V.75c0-.288-.144-.432-.577-.432h-4.182c-.288 0-.577.144-.577.432v11.677c0 3.604 2.596 6.487 7.354 6.487 4.902 0 7.497-2.883 7.497-6.487V.75c.435-.288.147-.433-.142-.433zm29.99 7.353L76.56 6.66c-.865-.287-1.01-.864-1.01-1.152 0-.432.433-1.01 1.3-1.01 1.008 0 2.306.29 3.748 1.298.144.144.433.144.577 0l2.45-2.883c.145-.144.145-.432 0-.577C81.61.606 79.156.03 76.85.03c-4.326 0-6.92 2.738-6.92 5.62 0 2.308 1.297 4.47 4.18 5.335l2.595.865c1.298.432 1.442.72 1.442 1.297 0 .433-.577 1.01-1.586 1.01-1.44 0-3.17-.866-4.324-1.875-.144-.144-.433-.144-.577 0l-2.452 3.172c-.144.144-.144.432 0 .576 1.73 1.442 4.326 2.595 7.497 2.595 4.037 0 7.065-2.307 7.065-5.91.288-2.018-1.298-4.036-4.182-5.045zm-14.85 4.18C66.9 10.7 68.052 8.97 68.052 6.518c0-3.17-2.595-6.055-7.065-6.055h-7.93c-.288 0-.433.288-.433.577v17.298c0 .29.144.433.433.433h4.325c.288 0 .432-.143.432-.432v-5.766h1.73l3.028 5.622c.144.29.433.432.72.432h4.903c.288 0 .432-.144.288-.432l-3.747-6.343zM60.7 8.103h-2.74v-3.17h2.74c1.442 0 2.163.72 2.163 1.585-.144.864-.72 1.585-2.163 1.585zM12.976.317H.576C.145.317 0 .607 0 .894v17.3c0 .288.144.575.577.575h4.18c.29 0 .433-.29.433-.577V12.57h5.335c.288 0 .577-.143.577-.432l.865-3.892c0-.288 0-.432-.433-.432H5.19V4.93h7.066c.288 0 .577-.143.577-.43l.72-3.605c0-.29-.144-.578-.577-.578zm159.32 13.84h-7.498V11.85h5.335c.29 0 .577-.144.577-.433l.865-3.892c0-.29 0-.433-.433-.433h-6.2v-2.16h6.777c.287 0 .576-.145.576-.433l.72-3.605c0-.29 0-.577-.432-.577H160.04c-.288 0-.577.288-.577.577v17.3c0 .288.144.575.577.575h11.39c.29 0 .577-.144.577-.433l.72-3.604c.002-.288.002-.576-.43-.576zM134.376.75c0-.288-.287-.432-.576-.432h-5.623c-.288 0-.432.144-.577.432l-5.19 17.444c0 .29 0 .432.288.432h4.614c.288 0 .433-.29.577-.432l.72-2.595h4.758l.865 2.594c0 .29.288.432.577.432h4.614c.288 0 .433-.29.288-.432L134.377.75zm-5.046 9.947l1.73-5.622 1.586 5.622h-3.316zM116.787.317c-.288 0-.577.288-.577.432v10.667c0 1.73-.72 2.595-2.307 2.595-1.586 0-2.307-.865-2.307-2.595V.75c0-.288-.144-.432-.577-.432h-4.182c-.29 0-.577.144-.577.432v11.677c0 3.604 2.596 6.487 7.354 6.487 4.902 0 7.498-2.883 7.498-6.487V.75c.288-.288.144-.432-.144-.432h-4.18zm36.766 11.534c2.163-1.152 3.316-2.882 3.316-5.333 0-3.17-2.596-6.055-6.922-6.055h-7.93c-.288 0-.432.288-.432.577v17.298c0 .29.144.433.432.433h4.326c.288 0 .432-.143.432-.432v-5.766h1.73l3.028 5.622c.144.29.433.432.72.432h4.903c.288 0 .432-.144.288-.432l-3.892-6.343zm-4.037-3.748h-2.74v-3.17h2.74c1.442 0 2.163.72 2.163 1.585-.146.864-.723 1.585-2.164 1.585zm-48.013 8.506c.144-.144.433-.288.577-.577 2.45-2.594 3.172-6.486 2.018-9.946C102.8 2.624 99.628.318 95.88.03c-3.75-.29-7.497 1.585-9.228 4.756-1.874 3.46-1.586 7.93 1.01 10.812 2.162 2.595 5.622 3.604 8.938 3.172l.144.144c1.73 1.73 4.758 2.595 7.21 2.595l1.008-5.047c-.288 0-.433-.144-.577-.144-.575.288-1.728.576-2.882.288zm-6.632-2.45c-2.45 0-4.036-2.02-4.036-4.614S92.42 4.93 94.87 4.93c2.452 0 4.038 2.02 4.038 4.614 0 2.45-1.73 4.613-4.037 4.613zM24.368.027c-3.75-.288-7.497 1.587-9.228 4.758-1.875 3.46-1.587 7.93 1.008 10.812 3.605 4.18 10.67 4.47 14.562.433 2.45-2.594 3.172-6.486 2.018-9.946-1.44-3.316-4.613-5.767-8.36-6.055zM23.5 14.16c-2.45 0-4.036-2.02-4.036-4.614S21.05 4.93 23.5 4.93s4.038 2.02 4.038 4.614c0 2.45-1.585 4.613-4.037 4.613z"/></svg>