<svg xmlns="http://www.w3.org/2000/svg" width="144.534" height="34.386" viewBox="0 0 144.534 34.386"><path fill="#B4B4B4" d="M139.96 9.843h.723l-.48 2.043h.36l.48-2.043h.723v-.24h-1.805v.24zm4.093-.24l-1.083 2.044-.36-2.044h-.483l-.24 2.284h.24l.36-2.043.362 2.043h.24l1.203-2.043-.48 2.043h.24l.482-2.284h-.482zM8.905 12.247c-.48-.24-.963-.36-1.565-.24-.48-.12-.963-.12-1.564-.12-1.324 0-2.407.24-3.37.72-.482.24-.842.602-1.083 1.083-.36.48-.482 1.082-.482 1.803 0 .6.122.96.362 1.322l.722.72c.36.12.722.24.963.362.24 0 .48.12.602.12.48 0 .84.12 1.082.12l.842.12c.24 0 .36.12.48.24s.12.24.12.48c0 .12 0 .362-.12.602l-.36.24c-.24.12-.48.12-.722.12-.48 0-.842-.12-1.083-.24-.242-.24-.362-.602-.362-.962H0c0 .72.12 1.322.602 1.803.24.482.602.842 1.083 1.083.48.24.963.36 1.565.48.48.12 1.083.12 1.564.12 1.565 0 2.888-.24 3.73-.96.843-.722 1.325-1.563 1.325-2.765 0-.96-.362-1.683-1.084-2.163-.722-.48-1.805-.84-3.25-.962-.48 0-.84-.24-.84-.72 0-.362.12-.602.36-.722s.48-.12.722-.12c.24 0 .602.12.842.24s.24.482.24.842h3.37c.12-.72 0-1.202-.24-1.683-.242-.362-.603-.722-1.085-.963zm7.462 9.735h3.61l2.046-9.976h-3.73l-.843 4.086c-.12.24-.12.6-.24.962l-.362.96c-.12.24-.24.482-.48.722-.242.24-.482.36-.964.36-.24 0-.48-.12-.722-.24-.24-.12-.36-.36-.36-.6s0-.602.12-1.083l1.202-5.168h-3.73c-.482 2.644-.843 4.567-1.083 5.53-.24.96-.36 1.682-.36 2.042 0 .96.36 1.683.963 2.043.602.36 1.324.6 2.166.6 1.202 0 2.285-.6 3.128-1.562l-.36 1.324zm6.86-9.975l-2.768 13.34h3.73l.842-4.446c.48.602.963.963 1.444 1.203.48.12 1.083.24 1.564.24.842 0 1.565-.24 2.166-.6.602-.482 1.083-.962 1.444-1.564.722-1.323 1.083-2.765 1.083-4.328 0-.48 0-.962-.12-1.442s-.36-.96-.602-1.322c-.24-.36-.6-.72-1.082-.96-.48-.24-.963-.362-1.685-.362-1.203 0-2.046.48-2.648 1.442l.24-1.202h-3.608zm3.61 2.884c.24-.24.602-.36.963-.36.482 0 .842.12 1.083.482.12.36.24.84.24 1.322 0 .6-.12 1.322-.36 2.043-.12.24-.36.48-.602.72-.24.242-.6.362-.962.362-.36 0-.602-.12-.722-.12-.24-.12-.36-.242-.48-.482 0-.24-.122-.48-.122-.6v-.36c0-.602.12-1.203.36-2.044.12-.362.362-.722.603-.963zm11.433 4.93c-.602 0-.963-.242-1.203-.602-.24-.36-.36-.72-.36-1.322h6.98c.24-.72.24-1.322.24-1.803 0-1.562-.602-2.644-1.564-3.365-1.083-.6-2.046-.962-3.25-.962-.6 0-1.203 0-1.925.24s-1.324.602-1.925 1.083c-.602.48-1.083 1.2-1.444 1.922-.362.72-.603 1.683-.603 2.885-.12 1.322.36 2.283 1.083 3.125.842.842 2.046 1.322 3.73 1.322.964-.12 1.926-.24 2.528-.48.722-.242 1.204-.602 1.564-.963.36-.36.722-.72.842-1.08.12-.242.24-.362.24-.482.12-.12.12-.12.12-.24h-3.61c-.12.48-.602.72-1.444.72zm.6-5.65c.483 0 .843.12 1.084.36.24.24.36.602.36.962v.36h-3.49c.362-1.08.964-1.682 2.047-1.682zm14.322-2.284c-.24-.12-.722-.12-1.324-.12-.48 0-.963.12-1.564.48-.482.362-.963.722-1.324 1.323l.36-1.563h-3.73l-2.166 9.976h3.85l.843-4.207c.24-.96.48-1.683.963-2.163.48-.36 1.083-.6 1.925-.6.48 0 .963.12 1.444.24l.722-3.367zm8.665.962c-.24-.36-.722-.6-1.203-.84-.48-.12-1.083-.242-1.685-.242-.603 0-1.204.12-1.806.36-.602.24-1.083.722-1.564 1.323l.36-1.443h-1.563l-3.01 13.822h1.686l1.083-5.41c.12.36.24.6.482.84.12.24.48.482.722.602.36.12.602.24.963.24.36.12.602.12.963.12.963 0 1.685-.24 2.407-.6.602-.362 1.203-.842 1.685-1.443.48-.602.842-1.323 1.083-2.044.242-.72.362-1.563.362-2.284 0-.6-.12-1.202-.24-1.683-.123-.48-.364-.96-.725-1.322zm-.842 4.567c-.12.6-.36 1.08-.722 1.562-.24.48-.722.842-1.203 1.202-.48.36-1.083.48-1.685.48-.842 0-1.444-.24-1.925-.72-.36-.482-.602-1.083-.602-1.804 0-.6.12-1.082.24-1.682.12-.48.362-1.082.723-1.563.362-.48.723-.84 1.204-1.2.48-.362 1.083-.482 1.685-.482.84 0 1.563.24 1.925.72.36.482.602 1.083.602 1.924 0 .602-.122 1.083-.242 1.563zm10.95 3.486h-.24c-.12 0-.24 0-.36-.12s-.12-.24-.12-.48 0-.48.12-.72l.12-.722.6-2.765c.12-.24.12-.48.242-.84.12-.362.12-.722.12-.963 0-.48 0-.84-.24-1.202-.242-.36-.482-.6-.843-.84-.36-.12-.722-.24-1.203-.362-.48-.12-.962-.12-1.443-.12-.602 0-1.083.12-1.564.24-.48.12-.963.36-1.324.602-.362.24-.723.6-.964.96-.24.362-.36.842-.48 1.444v.24h1.563c.12-.36.24-.6.36-.84.12-.242.36-.482.602-.602.24-.24.482-.24.842-.36s.602-.12.963-.12h.722c.24 0 .36 0 .72.12.242.12.362.24.482.36s.24.36.24.6c0 .36 0 .602-.12.842s-.24.36-.48.48-.48.242-.842.242c-.24 0-.602.12-1.083.12-.48.12-1.083.12-1.685.24-.602.12-1.203.24-1.685.48-.48.24-.842.602-1.203.962-.36.36-.48.962-.48 1.683 0 .48.12.96.24 1.32.12.362.36.602.602.842.24.24.602.36.963.48.36.12.84.12 1.202.12.842 0 1.565-.12 2.046-.36.602-.24.963-.6 1.324-1.08-.12.48 0 .84.24 1.08.242.24.603.36 1.084.36.12 0 .24-.12.48-.12.242 0 .362 0 .482-.12l.24-1.2s-.12.12-.242.12zm-2.045-2.643c-.12.48-.36.84-.602 1.202-.48.84-1.444 1.32-2.768 1.32-.36 0-.842-.12-1.203-.36-.36-.24-.602-.6-.602-1.08 0-.242.12-.602.24-.722.122-.12.242-.36.483-.48l.722-.362.842-.12.963-.12.842-.12c.36-.12.602-.12.843-.24.24 0 .36-.12.602-.24l-.362 1.32zm11.914-6.37l-.36 1.802c0-.362-.122-.602-.362-.842s-.48-.48-.722-.6-.602-.24-.963-.362c-.36-.12-.722-.12-1.083-.12-.842 0-1.565.24-2.166.6-.722.362-1.203.842-1.685 1.443-.48.48-.843 1.2-1.083 1.922-.24.72-.36 1.443-.36 2.164 0 .6.12 1.202.24 1.682s.36.96.722 1.322c.36.36.722.6 1.203.84.48.24 1.083.362 1.685.362.722 0 1.204-.12 1.805-.36.48-.24.963-.602 1.324-1.203l-.362 1.44c-.12.482-.36.962-.602 1.323-.24.48-.602.72-.963.96-.36.242-.963.362-1.564.362-.362 0-.723-.12-.964-.12-.36 0-.602-.12-.843-.24-.24-.12-.48-.24-.602-.482-.12-.24-.24-.48-.24-.84h-1.685c0 .6.12 1.08.36 1.32.12.362.482.722.843.962.48.36.843.48 1.324.6.482.12.963.12 1.444.12 1.083 0 2.046-.12 2.768-.6s1.324-1.202 1.805-2.164c.12-.36.24-.72.36-1.2l.36-1.443 1.926-8.654h-1.562zm-1.444 5.528c-.24.6-.482 1.08-.722 1.562-.24.48-.602.842-1.083 1.202-.36.36-.963.48-1.565.48-.36 0-.722-.12-1.083-.24-.24-.12-.48-.36-.722-.6-.24-.242-.36-.482-.482-.843-.12-.36-.12-.72-.12-1.08l.12-1.443c.24-.6.482-1.082.722-1.563.24-.48.602-.84 1.083-1.2.48-.362.963-.482 1.564-.482.842 0 1.565.24 1.926.72.36.482.602 1.083.602 1.924 0 .482-.12.962-.24 1.563zm7.823-5.65c-.602 0-1.324.12-1.925.482-.722.36-1.203.72-1.685 1.322-.48.6-.842 1.2-1.083 2.042-.24.84-.36 1.683-.36 2.644 0 .36.12.84.24 1.322.12.48.36.96.722 1.322.36.36.722.72 1.324.962.48.24 1.203.36 2.046.36.602 0 1.083-.12 1.565-.24.48-.12.963-.36 1.324-.6.482-.362.844-.722 1.084-1.083.24-.362.48-.843.602-1.443H90.38c-.24.6-.6 1.082-1.082 1.442-.48.36-1.083.48-1.805.48-.36 0-.602 0-.963-.12-.36-.12-.602-.24-.842-.48-.24-.12-.48-.36-.602-.722-.12-.36-.24-.72-.24-1.08v-.842h7.46l.12-.6v-.722c0-1.322-.24-2.524-.963-3.245-.723-.843-1.806-1.204-3.25-1.204zm-3.25 4.088c.12-.36.24-.72.48-1.082l.723-.84c.24-.24.602-.48.963-.6.36-.12.84-.24 1.323-.24.48 0 .843.12 1.204.24.24.12.48.36.722.6l.36.96c.107.322.116.642.117.963h-5.894zm11.193-2.404c.24-.12.482-.242.722-.242h.722c.36 0 .602 0 .842.12.36.12.482.24.722.36s.36.24.48.482c.12.24.12.48.12.72v-.12h1.445c0-.6-.12-1.08-.362-1.44-.24-.36-.48-.722-.842-.962-.36-.24-.722-.36-1.203-.48-.36-.12-.842-.12-1.324-.12-.482 0-.843.12-1.325.24-.48.12-.842.36-1.204.6-.36.24-.6.482-.84.842-.242.36-.362.72-.362 1.202 0 .36.12.72.24.96.122.24.362.482.603.722.242.24.482.48.843.6.36.24.602.362.963.482l.963.36c.36.12.6.24.84.36s.482.362.603.482c.12.12.24.36.24.6s-.12.482-.24.722-.24.36-.48.48c-.242.12-.482.24-.723.24-.24.12-.602.12-.842.12-.36 0-.602 0-.963-.12-.36-.12-.602-.24-.843-.36-.24-.12-.48-.36-.602-.6-.12-.24-.12-.6-.12-.96h-1.685c0 .6.12 1.08.36 1.562.242.48.482.84.843 1.082.36.24.843.48 1.324.6.48.12.963.12 1.565.12.48 0 .963 0 1.444-.12.482-.12.964-.36 1.325-.6.36-.24.722-.6.963-.96.24-.362.36-.842.36-1.444 0-.36-.12-.72-.24-.96s-.36-.482-.602-.722c-.24-.24-.48-.48-.842-.6-.36-.24-.602-.362-.963-.482l-.962-.36c-.36-.12-.602-.24-.843-.36-.24-.12-.48-.362-.602-.482-.12-.12-.24-.36-.24-.6 0-.242.12-.482.24-.602.122-.123.242-.243.483-.363zm5.295 8.532h2.167l.48-2.163h-2.165l-.48 2.162zm12.517-6.37c-.12-1.08-.36-1.923-1.083-2.524-.602-.6-1.564-.84-2.647-.84-.963 0-1.685.12-2.407.48-.602.24-1.203.72-1.685 1.322-.48.48-.843 1.202-1.083 1.923-.24.72-.36 1.442-.36 2.283 0 1.322.36 2.404 1.082 3.125.722.722 1.805 1.082 3.13 1.082 1.082 0 2.045-.36 2.887-.96.844-.722 1.445-1.563 1.686-2.645H111.8c-.24.6-.602 1.082-1.083 1.442-.48.36-1.083.6-1.805.6-.48 0-.842-.12-1.203-.24-.242-.12-.483-.36-.723-.602l-.36-.962c-.12-.36-.12-.72-.12-1.082 0-.6.12-1.08.24-1.683.12-.6.36-1.08.722-1.562.36-.48.72-.84 1.203-1.082.48-.36 1.083-.48 1.685-.48.722 0 1.203.12 1.565.48.36.36.602.84.602 1.442v.48h1.442zm10.59.24c0-1.44-.36-2.403-1.083-3.124-.722-.72-1.805-1.082-3.13-1.082-.962 0-1.684.12-2.406.48-.722.362-1.324.842-1.805 1.443-.48.6-.842 1.32-1.083 2.042-.24.84-.36 1.563-.36 2.404 0 .6.12 1.202.48 1.683.24.48.48.96.842 1.32.36.362.842.602 1.324.843.602.24 1.203.36 1.805.36.843 0 1.566-.12 2.287-.48.602-.36 1.203-.842 1.685-1.443.48-.6.842-1.322 1.083-2.043.242-.842.362-1.563.362-2.404zm-2.046 1.683c-.12.6-.36 1.082-.72 1.562-.362.48-.723.842-1.205 1.202-.48.36-.962.48-1.564.48-.84 0-1.563-.24-2.045-.72-.48-.602-.722-1.203-.722-2.044 0-.48.12-1.08.24-1.562.12-.6.36-1.082.722-1.563.36-.48.722-.84 1.203-1.2.48-.362 1.083-.482 1.685-.482.48 0 .842.12 1.203.24.36.12.602.36.843.602.24.24.36.48.48.84.12.362.12.722.12 1.083.002.48-.12.962-.24 1.562zM139 12.127c-.24-.12-.48-.24-.842-.36-.36-.12-.722-.12-1.083-.12-.722 0-1.324.12-1.925.48-.602.36-1.083.72-1.444 1.322-.12-.722-.36-1.203-.843-1.443-.48-.24-1.082-.36-1.684-.36-.722 0-1.324.12-1.926.48-.602.36-1.083.84-1.564 1.322l.36-1.443h-1.563l-2.286 9.735h1.685l1.083-5.288c.12-.48.24-.84.36-1.202.12-.24.362-.6.723-.962.12-.12.24-.36.48-.48l.603-.36c.12-.12.362-.12.603-.242.24-.12.48-.12.722-.12.48 0 .842.12 1.083.36.24.24.36.602.36.962 0 .12-.12.36-.12.72l-.24 1.083-1.203 5.65h1.685l1.083-5.17.36-1.2c.12-.482.362-.842.603-1.083.12-.12.24-.36.48-.48.12-.24.362-.362.603-.482l.72-.24c.242-.12.482-.12.723-.12.48 0 .843.12 1.083.36.36.24.482.6.482.96v.482c0 .24-.12.48-.12.6l-1.444 6.37h1.685l1.202-6.01c.12-.24.12-.6.24-.96s.12-.722.12-.962c0-.48-.12-.84-.24-1.082-.122-.358-.363-.6-.604-.72zM15.765 8.16c.602-.48 1.324-.6 2.046-.84.964-.24 1.927-.602 2.89-1.083 1.202-.48 2.406-1.442 3.49-2.163.962-.6 1.925-1.322 3.008-1.322s1.925.6 2.768 1.202c1.203.72 2.286 1.682 3.61 2.284 1.204.6 2.527 1.082 3.85 1.442.362.12.843.24 1.084.6.36.36.36 1.684.48 2.285 1.325 0 2.408.24 3.61.84-.12-.72-.12-2.643-.24-3.485-.12-1.322-1.083-1.803-2.166-2.163-1.805-.6-3.73-.84-5.415-1.683-1.205-.6-2.287-1.322-3.49-2.163C30.205 1.19 29.242.35 27.92.11c-1.325-.36-2.648.24-3.732.96-1.565.963-2.888 2.165-4.453 2.886-.963.48-1.926.84-3.01 1.082l-3.008.84c-.842.362-1.685 1.083-1.805 2.044-.12.84-.12 2.164-.12 2.884h3.61c.122-.72-.24-2.163.363-2.644zm21.06 14.904l-.36.842c-.36.96-.842 1.803-1.444 2.644-.962 1.442-2.165 2.765-3.49 3.846-.6.6-1.323 1.082-2.045 1.442-.843.48-1.685.96-2.648.84-.842 0-1.805-.6-2.527-1.08-3.01-1.924-5.175-4.688-6.86-7.934-.12-.24-.12-.36-.12-.36v-.12h-3.25s.48.84.602 1.082c.842 1.443 1.685 2.885 2.768 4.207 1.083 1.322 2.287 2.404 3.61 3.365 1.324.96 2.768 1.923 4.332 2.404 1.444.36 3.01 0 4.332-.6 2.527-1.083 4.693-2.886 6.5-4.93 1.202-1.44 2.647-3.965 3.61-5.648-1.203.24-2.166.12-3.008 0z"/></svg>