<svg xmlns="http://www.w3.org/2000/svg" width="190.178" height="34.407" viewBox="0 0 190.178 34.407"><path fill="#B4B4B4" d="M44.32.95L33.99 7.203V0s-3.807 4.35-5.71 6.387l-1.088-.95c-1.36-1.224-2.72-2.31-4.214-2.99-2.583-1.36-5.3-2.04-8.292-2.04-1.495 0-2.99.137-4.35.545-2.854.95-5.165 2.445-7.068 4.755C1.5 7.745.548 10.19.14 12.91c-.27 2.037-.135 4.212.273 6.114.408 1.902.952 3.533 1.903 5.164.815 1.495 1.767 2.854 2.854 4.077 2.04 2.04 4.35 3.67 6.933 4.756 2.175.816 4.35 1.36 6.66 1.36 1.632.136 3.264-.272 4.76-.815 2.446-.816 4.62-2.174 6.388-4.213 1.496-1.63 2.584-3.67 3.128-5.844.272-.815.408-1.902.544-2.854l4.486 1.223-1.903-5.028 11.555.27L44.32.95zM28.28 22.016c-.408 1.087-1.088 2.174-1.903 2.99-1.087 1.087-2.31 1.903-3.806 2.31-1.087.408-2.174.544-3.262.544-2.72-.137-5.166-1.088-7.205-2.72-2.04-1.63-3.534-3.532-4.35-5.978-.952-2.718-.815-5.028-.544-6.25.407-2.175 1.358-3.942 2.99-5.3.952-.817 2.175-1.496 3.398-1.768.952-.272 1.903-.408 2.855-.408 2.854 0 5.437.95 7.612 2.718.408.272.815.68 1.223 1.087.136.137.136.273.136.41l-1.63 1.9c-.953-.95-2.04-1.765-3.263-2.173-2.174-.816-4.485-.68-6.388.815-1.36.95-2.04 2.31-2.31 3.94-.273 2.447.27 4.485 1.766 6.252 1.36 1.63 2.99 2.718 5.3 3.125 2.176.27 4.215-.408 5.71-2.04.68-.814 1.087-1.766 1.36-2.853 1.087.272 2.038.544 2.99.815-.134.952-.406 1.767-.678 2.583zm-6.39-8.29c-.95.95-1.766 2.038-2.718 3.126l3.534.952c-.544 1.087-1.36 1.495-2.31 1.63-2.72.272-4.895-2.446-4.08-4.892.41-1.087 1.496-2.038 2.584-2.038 1.224 0 2.175.408 2.99 1.223zm-.135 2.038L31.95 4.485l.816 4.892L43.37 4.35l.407 4.483-22.022 6.93zm43.09 2.31c2.584-.27 4.487-1.494 4.487-3.94 0-2.718-2.31-4.213-5.3-4.213H50.436v2.582h2.175c.68 0 .816.544.816 1.087v9.783c0 .68-.272 1.087-.816 1.087h-2.175v2.582h13.865c3.127 0 5.71-1.766 5.71-4.756s-2.31-4.076-5.166-4.212zm-6.252-5.57h3.262c1.36 0 2.175 1.086 2.175 2.173 0 1.223-.816 2.31-2.31 2.31H58.59v-4.484zm2.583 11.958h-2.583v-5.027h3.262c1.224 0 2.855.272 2.855 2.582 0 1.63-1.495 2.446-3.534 2.446zm17.536-10.6c-4.486 0-7.748 2.447-7.748 6.796 0 4.756 3.126 6.795 7.884 6.795 3.534 0 7.205-1.358 7.34-4.89h-2.583c-.408 1.765-1.36 2.31-3.67 2.31-2.53 0-3.617-1.31-3.662-3.535h10.05c0-4.756-2.582-7.474-7.61-7.474zm-2.447 5.165c0-1.223.68-2.854 2.447-2.854 1.903 0 2.31 1.632 2.31 2.855h-4.757zm22.157.272l-5.573-1.223c-.545-.136-.952-.272-.952-.68 0-1.086 1.36-1.222 2.31-1.222 2.04 0 3.67.68 4.215 2.31h2.31v-4.62H98.83l-.544.95c-1.495-.678-2.855-.95-4.486-.95-2.99 0-6.117 1.223-6.117 4.484 0 2.04 1.224 3.126 3.263 3.533l5.03 1.086c.68.136 1.087.408 1.087.95 0 .953-1.495 1.088-2.447 1.088-2.04 0-4.078-.815-4.622-2.582H87.82v4.756h2.04l.407-.95c1.495.95 3.127 1.222 4.894 1.222 2.856 0 6.254-1.36 6.254-4.62 0-1.63-1.09-3.126-2.992-3.533zm12.235 4.348c0 .272-.136.68-.816.68-.407 0-.68-.272-.68-.68v-7.202h3.4V14.27h-3.4V9.376h-2.582c0 3.26-1.495 5.028-4.758 5.028v2.038h2.583v7.202c0 2.582 1.767 3.805 4.758 3.805 2.992 0 3.807-2.174 3.807-4.35v-1.766h-2.31v2.31zm14.68-6.93c0-1.766-1.222-2.718-2.99-2.718-1.902 0-3.126.95-3.126 2.718 0 1.767 1.36 2.582 2.992 2.582 1.766 0 3.126-.952 3.126-2.582zm-3.942-.136c0-1.088.136-1.768.952-1.768s.95.68.95 1.767c0 1.086-.135 1.766-.95 1.766-.816 0-.952-.816-.952-1.767zm8.292 1.63h-.95c-.137 0-.273-.136-.273-.272v-2.99h1.224v-.815h-1.224l-.136-.815c0-.408.136-.68.68-.68h.136c-.136.136-.136.272-.136.408 0 .544.272.815.816.815.544 0 .95-.407.95-.95 0-.95-1.087-1.087-1.902-1.087-.95 0-1.63.136-2.04.815-.27.408-.27.815-.27 1.495h-.817v.815h.816v3.125c0 .136-.135.272-.27.272h-.545v.68h3.942v-.815zm-11.418 1.902h-1.09c0 1.36-.68 2.038-1.902 2.038v.815h.95v2.718c0 1.087.68 1.495 1.904 1.495s1.495-.815 1.495-1.63v-.68h-.816v.952c0 .136 0 .272-.27.272-.137 0-.273-.136-.273-.272v-2.99h1.36v-.815h-1.36v-1.903zm8.155 5.844v-2.31c0-1.223-.952-1.63-1.903-1.63-.68 0-1.36.406-1.767.814v-2.99l-2.72.136v.815h.68c.137 0 .273.137.273.273v4.892c0 .408-.136.408-.272.408h-.543v.815h3.398v-.68h-.407c-.272 0-.272-.27-.272-.407v-2.037c0-.544.545-.815 1.088-.815.272 0 .68.136.68.815v1.903c0 .408-.136.408-.272.408h-.408v.815h3.263v-.816h-.543c-.272 0-.272-.273-.272-.408zm3.942-3.94c-1.767 0-2.99.95-2.99 2.717 0 1.767 1.223 2.582 3.126 2.582 1.36 0 2.72-.544 2.855-1.903h-.95c-.137.68-.41.95-1.36.95-1.088 0-1.495-.543-1.495-1.494h3.806c-.002-1.766-.954-2.853-2.993-2.853zm-.815 2.037c0-.408.272-1.087.95-1.087.817 0 .952.68.952 1.087h-1.902zm32.488-11.55V9.92h-8.02v2.718h1.495c.543 0 .815.136.815.544 0 .136 0 .408-.136.815l-2.99 8.018-3.128-8.425v-.408c0-.544.408-.68 1.224-.68h.95V9.92h-9.65v2.582h.544c1.63 0 1.903.272 2.447 1.903l-2.853 7.61c-2.31-5.98-3.127-8.29-3.127-8.697 0-.544.272-.815 1.087-.815h.544V9.92h-9.38v2.582h.817c.68 0 1.495 0 1.767.815l5.166 13.86h4.078l3.263-8.968 3.263 8.968h3.942l5.165-13.59c.41-1.086 1.225-1.086 2.72-1.086zm4.486 1.358c-4.486 0-7.748 2.447-7.748 6.796 0 4.756 3.126 6.795 7.884 6.795 3.534 0 7.204-1.358 7.34-4.89h-2.583c-.41 1.765-1.36 2.31-3.67 2.31-2.53 0-3.618-1.31-3.663-3.535h10.05c0-4.756-2.582-7.474-7.61-7.474zm-2.447 5.165c0-1.223.68-2.854 2.446-2.854 1.903 0 2.31 1.632 2.31 2.855h-4.757zm20.117-5.3c-1.63 0-3.262.68-4.214 1.63v-7.2l-7.068.406v2.175h1.495c.68 0 .816.544.816.95v15.357h2.72l.95-2.174c1.224 1.766 2.584 2.446 4.76 2.446 4.35 0 6.524-2.99 6.524-6.795-.002-3.534-1.904-6.795-5.983-6.795zm-1.63 11.28c-2.04 0-2.448-1.903-2.448-4.213 0-2.04.135-4.62 2.582-4.62 2.175 0 2.447 2.99 2.447 4.755 0 1.495-.273 4.213-2.584 4.077z"/></svg>